# Blender 3.4.1
# www.blender.org
mtllib MineProp.mtl
o Untitled
v -0.250000 -0.050000 0.250000
v -0.250000 -0.050000 -0.250000
v -0.250000 0.050000 0.250000
v -0.250000 0.050000 -0.250000
v 0.250000 -0.050000 0.250000
v 0.250000 -0.050000 -0.250000
v 0.250000 0.050000 0.250000
v 0.250000 0.050000 -0.250000
v -0.250000 -0.050000 0.250000
v -0.250000 0.050000 0.250000
v 0.250000 -0.050000 0.250000
v 0.250000 0.050000 0.250000
v -0.250000 -0.050000 -0.250000
v -0.250000 0.050000 -0.250000
v 0.250000 -0.050000 -0.250000
v 0.250000 0.050000 -0.250000
v -0.250000 -0.050000 0.250000
v 0.250000 -0.050000 0.250000
v -0.150000 -0.050000 0.150000
v -0.049999 -0.050000 0.150000
v 0.049999 -0.050000 0.150000
v 0.150000 -0.050000 0.150000
v -0.150000 -0.050000 0.050000
v -0.049999 -0.050000 0.050000
v 0.049999 -0.050000 0.050000
v 0.150000 -0.050000 0.050000
v -0.150000 -0.050000 -0.050000
v -0.049999 -0.050000 -0.050000
v 0.049999 -0.050000 -0.050000
v 0.150000 -0.050000 -0.050000
v -0.150000 -0.050000 -0.150000
v -0.049999 -0.050000 -0.150000
v 0.049999 -0.050000 -0.150000
v 0.150000 -0.050000 -0.150000
v -0.250000 -0.050000 -0.250000
v 0.250000 -0.050000 -0.250000
v -0.250000 0.050000 0.250000
v 0.250000 0.050000 0.250000
v -0.150000 0.050000 0.150000
v -0.049999 0.050000 0.150000
v 0.049999 0.050000 0.150000
v 0.150000 0.050000 0.150000
v -0.150000 0.050000 0.050000
v -0.049999 0.050000 0.050000
v 0.049999 0.050000 0.050000
v 0.150000 0.050000 0.050000
v -0.150000 0.050000 -0.050000
v -0.049999 0.050000 -0.050000
v 0.049999 0.050000 -0.050000
v 0.150000 0.050000 -0.050000
v -0.150000 0.050000 -0.150000
v -0.049999 0.050000 -0.150000
v 0.049999 0.050000 -0.150000
v 0.150000 0.050000 -0.150000
v -0.250000 0.050000 -0.250000
v 0.250000 0.050000 -0.250000
vn -1.0000 -0.0000 -0.0000
vn 1.0000 -0.0000 -0.0000
vn -0.0000 -0.0000 1.0000
vn -0.0000 -0.0000 -1.0000
vn -0.0000 -1.0000 -0.0000
vn -0.0000 1.0000 -0.0000
vt 0.994141 0.500000
vt 0.994141 0.500000
vt 0.994141 0.500000
vt 0.994141 0.500000
vt 0.994141 0.500000
vt 0.994141 0.500000
vt 0.994141 0.500000
vt 0.994141 0.500000
vt 0.994141 0.500000
vt 0.994141 0.500000
vt 0.994141 0.500000
vt 0.994141 0.500000
vt 0.994141 0.500000
vt 0.994141 0.500000
vt 0.994141 0.500000
vt 0.994141 0.500000
vt 0.994141 0.500000
vt 0.994141 0.500000
vt 0.994141 0.500000
vt 0.876953 0.500000
vt 0.994141 0.500000
vt 0.986328 0.500000
vt 0.876953 0.500000
vt 0.994141 0.500000
vt 0.876953 0.500000
vt 0.986328 0.500000
vt 0.994141 0.500000
vt 0.876953 0.500000
vt 0.876953 0.500000
vt 0.986328 0.500000
vt 0.994141 0.500000
vt 0.876953 0.500000
vt 0.986328 0.500000
vt 0.986328 0.500000
vt 0.876953 0.500000
vt 0.876953 0.500000
vt 0.994141 0.500000
vt 0.986328 0.500000
vt 0.986328 0.500000
vt 0.994141 0.500000
vt 0.876953 0.500000
vt 0.986328 0.500000
vt 0.876953 0.500000
vt 0.876953 0.500000
vt 0.986328 0.500000
vt 0.986328 0.500000
vt 0.994141 0.500000
vt 0.876953 0.500000
vt 0.876953 0.500000
vt 0.994141 0.500000
vt 0.876953 0.500000
vt 0.986328 0.500000
vt 0.994141 0.500000
vt 0.986328 0.500000
vt 0.876953 0.500000
vt 0.994141 0.500000
vt 0.876953 0.500000
vt 0.994141 0.500000
vt 0.994141 0.500000
vt 0.994141 0.500000
vt 0.994141 0.500000
vt 0.994141 0.500000
vt 0.994141 0.500000
vt 0.876953 0.500000
vt 0.994141 0.500000
vt 0.986328 0.500000
vt 0.876953 0.500000
vt 0.994141 0.500000
vt 0.876953 0.500000
vt 0.986328 0.500000
vt 0.994141 0.500000
vt 0.876953 0.500000
vt 0.876953 0.500000
vt 0.986328 0.500000
vt 0.994141 0.500000
vt 0.876953 0.500000
vt 0.986328 0.500000
vt 0.986328 0.500000
vt 0.876953 0.500000
vt 0.876953 0.500000
vt 0.994141 0.500000
vt 0.986328 0.500000
vt 0.986328 0.500000
vt 0.994141 0.500000
vt 0.876953 0.500000
vt 0.986328 0.500000
vt 0.876953 0.500000
vt 0.876953 0.500000
vt 0.986328 0.500000
vt 0.986328 0.500000
vt 0.994141 0.500000
vt 0.876953 0.500000
vt 0.876953 0.500000
vt 0.994141 0.500000
vt 0.876953 0.500000
vt 0.986328 0.500000
vt 0.994141 0.500000
vt 0.986328 0.500000
vt 0.876953 0.500000
vt 0.994141 0.500000
vt 0.876953 0.500000
vt 0.994141 0.500000
vt 0.994141 0.500000
vt 0.994141 0.500000
s 1
usemtl palette
f 3/3/1 2/2/1 1/1/1
f 4/4/1 2/2/1 3/3/1
f 5/5/2 6/6/2 7/7/2
f 7/7/2 6/6/2 8/8/2
f 11/11/3 10/10/3 9/9/3
f 12/12/3 10/10/3 11/11/3
f 13/13/4 14/14/4 15/15/4
f 15/15/4 14/14/4 16/16/4
f 19/19/5 18/18/5 17/17/5
f 20/21/5 18/18/5 19/19/5
f 21/24/5 18/18/5 20/21/5
f 22/27/5 18/18/5 21/24/5
f 23/31/5 19/19/5 17/17/5
f 23/29/5 20/23/5 19/20/5
f 24/33/5 21/26/5 20/22/5
f 24/32/5 20/23/5 23/29/5
f 25/35/5 22/28/5 21/25/5
f 25/34/5 21/26/5 24/33/5
f 26/37/5 18/18/5 22/27/5
f 26/36/5 22/28/5 25/35/5
f 27/39/5 24/33/5 23/30/5
f 27/40/5 23/31/5 17/17/5
f 28/43/5 25/35/5 24/32/5
f 28/42/5 24/33/5 27/39/5
f 29/45/5 26/38/5 25/34/5
f 29/44/5 25/35/5 28/43/5
f 30/47/5 18/18/5 26/37/5
f 30/46/5 26/38/5 29/45/5
f 31/50/5 27/40/5 17/17/5
f 31/49/5 28/43/5 27/41/5
f 32/52/5 29/45/5 28/42/5
f 32/51/5 28/43/5 31/49/5
f 33/55/5 30/48/5 29/44/5
f 33/54/5 29/45/5 32/52/5
f 34/58/5 18/18/5 30/47/5
f 34/57/5 30/48/5 33/55/5
f 35/59/5 33/56/5 32/53/5
f 35/59/5 31/50/5 17/17/5
f 35/59/5 34/58/5 33/56/5
f 35/59/5 32/53/5 31/50/5
f 36/60/5 18/18/5 34/58/5
f 36/60/5 34/58/5 35/59/5
f 37/61/6 38/62/6 39/63/6
f 39/63/6 38/62/6 40/65/6
f 40/65/6 38/62/6 41/68/6
f 41/68/6 38/62/6 42/71/6
f 37/61/6 39/63/6 43/75/6
f 39/64/6 40/67/6 43/73/6
f 40/66/6 41/70/6 44/77/6
f 43/73/6 40/67/6 44/76/6
f 41/69/6 42/72/6 45/79/6
f 44/77/6 41/70/6 45/78/6
f 42/71/6 38/62/6 46/81/6
f 45/79/6 42/72/6 46/80/6
f 43/74/6 44/77/6 47/83/6
f 37/61/6 43/75/6 47/84/6
f 44/76/6 45/79/6 48/87/6
f 47/83/6 44/77/6 48/86/6
f 45/78/6 46/82/6 49/89/6
f 48/87/6 45/79/6 49/88/6
f 46/81/6 38/62/6 50/91/6
f 49/89/6 46/82/6 50/90/6
f 37/61/6 47/84/6 51/94/6
f 47/85/6 48/87/6 51/93/6
f 48/86/6 49/89/6 52/96/6
f 51/93/6 48/87/6 52/95/6
f 49/88/6 50/92/6 53/99/6
f 52/96/6 49/89/6 53/98/6
f 50/91/6 38/62/6 54/102/6
f 53/99/6 50/92/6 54/101/6
f 52/97/6 53/100/6 55/103/6
f 37/61/6 51/94/6 55/103/6
f 53/100/6 54/102/6 55/103/6
f 51/94/6 52/97/6 55/103/6
f 54/102/6 38/62/6 56/104/6
f 55/103/6 54/102/6 56/104/6
