# MagicaVoxel @ Ephtracy

# group
o 

# material
mtllib Soldier.mtl
usemtl palette

# normals
vn -1 0 0
vn 1 0 0
vn 0 0 1
vn 0 0 -1
vn 0 -1 0
vn 0 1 0

# texcoords
vt 0.0683594 0.5
vt 0.603516 0.5
vt 0.623047 0.5
vt 0.767578 0.5
vt 0.939453 0.5
vt 0.943359 0.5
vt 0.947266 0.5
vt 0.951172 0.5
vt 0.974609 0.5
vt 0.978516 0.5
vt 0.982422 0.5
vt 0.994141 0.5

# verts
v -0.5 0.4 0.2
v -0.5 0.4 0.1
v -0.5 0.5 0.2
v -0.5 0.5 0.1
v -0.5 0.5 -2.98023e-08
v -0.5 0.6 0.3
v -0.5 0.6 0.2
v -0.5 0.6 -2.98023e-08
v -0.5 0.7 0.3
v -0.5 0.7 0.2
v -0.5 0.7 0.1
v -0.5 0.7 -2.98023e-08
v -0.5 1.2 0.2
v -0.5 1.2 0.1
v -0.4 0.5 -2.98023e-08
v -0.4 0.5 -0.1
v -0.4 0.6 -2.98023e-08
v -0.4 0.6 -0.1
v -0.3 0.3 -2.98023e-08
v -0.3 0.3 -0.1
v -0.3 0.5 0.1
v -0.3 0.5 -2.98023e-08
v -0.3 0.5 -0.1
v -0.3 0.6 0.1
v -0.3 0.6 -2.98023e-08
v -0.3 0.6 -0.1
v -0.3 0.6 -0.2
v -0.3 0.7 -0.2
v -0.3 0.7 -0.3
v -0.3 0.8 0.2
v -0.3 0.8 0.1
v -0.3 0.8 -0.3
v -0.3 1.1 0.2
v -0.3 1.1 0.1
v -0.3 1.1 -0.2
v -0.3 1.1 -0.3
v -0.3 1.2 0.1
v -0.3 1.2 -0.2
v -0.2 0 0.1
v -0.2 0 -0.1
v -0.2 0.1 0.1
v -0.2 0.1 -2.98023e-08
v -0.2 0.1 -0.1
v -0.2 0.2 -2.98023e-08
v -0.2 0.2 -0.1
v -0.2 0.3 0.1
v -0.2 0.3 -2.98023e-08
v -0.2 0.3 -0.1
v -0.2 0.3 -0.2
v -0.2 0.5 0.1
v -0.2 0.5 -2.98023e-08
v -0.2 0.6 -0.1
v -0.2 0.6 -0.2
v -0.2 0.8 -0.3
v -0.2 0.8 -0.4
v -0.2 1.1 0.2
v -0.2 1.1 0.1
v -0.2 1.1 -0.2
v -0.2 1.1 -0.3
v -0.2 1.1 -0.4
v -0.2 1.2 0.2
v -0.2 1.2 0.1
v -0.2 1.2 -2.98023e-08
v -0.2 1.2 -0.1
v -0.2 1.2 -0.2
v -0.2 1.2 -0.3
v -0.2 1.3 -2.98023e-08
v -0.2 1.3 -0.1
v -0.1 1.2 0.2
v -0.1 1.2 -2.98023e-08
v -0.1 1.2 -0.1
v -0.1 1.2 -0.2
v -0.1 1.3 0.2
v -0.1 1.3 -2.98023e-08
v -0.1 1.3 -0.1
v -0.1 1.3 -0.2
v 0.1 0 0.1
v 0.1 0 -0.1
v 0.1 0.1 0.1
v 0.1 0.1 -2.98023e-08
v 0.1 0.1 -0.1
v 0.1 0.2 -2.98023e-08
v 0.1 0.2 -0.1
v 0.1 0.3 -2.98023e-08
v 0.1 0.3 -0.1
v 0.2 0.4 0.3
v 0.2 0.4 0.2
v 0.2 0.7 0.3
v 0.2 0.7 0.2
v 0.2 0.8 0.2
v 0.2 0.8 0.1
v 0.2 0.9 0.1
v 0.2 1 0.2
v 0.2 1 0.1
v 0.3 0.3 0.3
v 0.3 0.3 0.2
v 0.3 0.4 0.3
v 0.3 0.4 0.2
v 0.3 0.7 0.3
v 0.3 0.7 0.2
v 0.3 0.8 0.3
v 0.3 0.8 0.2
v 0.4 0.5 0.2
v 0.4 0.5 -2.98023e-08
v 0.4 0.6 0.2
v 0.4 0.6 -2.98023e-08
v -0.4 0.4 0.2
v -0.4 0.4 0.1
v -0.4 0.5 0.2
v -0.4 0.5 0.1
v -0.4 0.5 -2.98023e-08
v -0.4 0.6 0.3
v -0.4 0.6 0.2
v -0.4 0.6 -2.98023e-08
v -0.4 0.7 0.3
v -0.4 0.7 0.2
v -0.4 0.7 0.1
v -0.4 0.7 -2.98023e-08
v -0.4 1.2 0.2
v -0.4 1.2 0.1
v -0.2 0.8 0.2
v -0.2 0.8 0.1
v -0.2 0.9 0.1
v -0.2 1 0.2
v -0.2 1 0.1
v -0.1 0 0.1
v -0.1 0 -0.1
v -0.1 0.1 0.1
v -0.1 0.1 -2.98023e-08
v -0.1 0.1 -0.1
v -0.1 0.2 -2.98023e-08
v -0.1 0.2 -0.1
v -0.1 0.3 -2.98023e-08
v -0.1 0.3 -0.1
v 0.1 1.2 0.2
v 0.1 1.2 -2.98023e-08
v 0.1 1.2 -0.1
v 0.1 1.2 -0.2
v 0.1 1.3 0.2
v 0.1 1.3 -2.98023e-08
v 0.1 1.3 -0.1
v 0.1 1.3 -0.2
v 0.2 0 0.1
v 0.2 0 -0.1
v 0.2 0.1 0.1
v 0.2 0.1 -2.98023e-08
v 0.2 0.1 -0.1
v 0.2 0.2 -2.98023e-08
v 0.2 0.2 -0.1
v 0.2 0.3 0.1
v 0.2 0.3 -2.98023e-08
v 0.2 0.3 -0.1
v 0.2 0.3 -0.2
v 0.2 0.5 0.1
v 0.2 0.5 -2.98023e-08
v 0.2 0.6 -0.1
v 0.2 0.6 -0.2
v 0.2 0.8 -0.3
v 0.2 0.8 -0.4
v 0.2 1.1 0.2
v 0.2 1.1 0.1
v 0.2 1.1 -0.2
v 0.2 1.1 -0.3
v 0.2 1.1 -0.4
v 0.2 1.2 0.2
v 0.2 1.2 0.1
v 0.2 1.2 -2.98023e-08
v 0.2 1.2 -0.1
v 0.2 1.2 -0.2
v 0.2 1.2 -0.3
v 0.2 1.3 -2.98023e-08
v 0.2 1.3 -0.1
v 0.3 0.3 -2.98023e-08
v 0.3 0.3 -0.1
v 0.3 0.5 0.1
v 0.3 0.5 -2.98023e-08
v 0.3 0.5 -0.1
v 0.3 0.6 0.1
v 0.3 0.6 -2.98023e-08
v 0.3 0.6 -0.1
v 0.3 0.6 -0.2
v 0.3 0.7 -0.2
v 0.3 0.7 -0.3
v 0.3 0.8 0.2
v 0.3 0.8 0.1
v 0.3 0.8 -0.3
v 0.3 1.1 0.2
v 0.3 1.1 0.1
v 0.3 1.1 -0.2
v 0.3 1.1 -0.3
v 0.3 1.2 0.1
v 0.3 1.2 -0.2
v 0.4 0.5 -2.98023e-08
v 0.4 0.5 -0.1
v 0.4 0.6 -2.98023e-08
v 0.4 0.6 -0.1
v 0.5 0.5 0.2
v 0.5 0.5 -2.98023e-08
v 0.5 0.6 0.2
v 0.5 0.6 -2.98023e-08
v 0.6 0.3 0.3
v 0.6 0.3 0.2
v 0.6 0.4 0.3
v 0.6 0.4 0.2
v 0.6 0.7 0.3
v 0.6 0.7 0.2
v 0.6 0.8 0.3
v 0.6 0.8 0.2
v 0.7 0.4 0.3
v 0.7 0.4 0.2
v 0.7 0.7 0.3
v 0.7 0.7 0.2
v -0.5 0.6 0.3
v -0.5 0.7 0.3
v -0.4 0.6 0.3
v -0.4 0.7 0.3
v 0.2 0.4 0.3
v 0.2 0.7 0.3
v 0.3 0.3 0.3
v 0.3 0.4 0.3
v 0.3 0.5 0.3
v 0.3 0.6 0.3
v 0.3 0.7 0.3
v 0.3 0.8 0.3
v 0.4 0.3 0.3
v 0.4 0.5 0.3
v 0.4 0.6 0.3
v 0.4 0.7 0.3
v 0.5 0.3 0.3
v 0.5 0.5 0.3
v 0.5 0.6 0.3
v 0.5 0.7 0.3
v 0.6 0.3 0.3
v 0.6 0.4 0.3
v 0.6 0.5 0.3
v 0.6 0.6 0.3
v 0.6 0.7 0.3
v 0.6 0.8 0.3
v 0.7 0.4 0.3
v 0.7 0.7 0.3
v -0.5 0.4 0.2
v -0.5 0.5 0.2
v -0.5 0.6 0.2
v -0.5 0.7 0.2
v -0.5 1.2 0.2
v -0.4 0.4 0.2
v -0.4 0.5 0.2
v -0.4 0.6 0.2
v -0.4 0.7 0.2
v -0.4 1.2 0.2
v -0.3 0.8 0.2
v -0.3 1.1 0.2
v -0.2 0.8 0.2
v -0.2 1 0.2
v -0.2 1.1 0.2
v -0.2 1.2 0.2
v -0.1 1.2 0.2
v -0.1 1.3 0.2
v 0.1 1.2 0.2
v 0.1 1.3 0.2
v 0.2 0.8 0.2
v 0.2 1 0.2
v 0.2 1.1 0.2
v 0.2 1.2 0.2
v 0.3 0.8 0.2
v 0.3 1.1 0.2
v -0.3 0.5 0.1
v -0.3 0.6 0.1
v -0.3 0.8 0.1
v -0.3 1.1 0.1
v -0.3 1.2 0.1
v -0.2 0 0.1
v -0.2 0.1 0.1
v -0.2 0.3 0.1
v -0.2 0.5 0.1
v -0.2 0.6 0.1
v -0.2 0.7 0.1
v -0.2 0.8 0.1
v -0.2 0.9 0.1
v -0.2 1 0.1
v -0.2 1.1 0.1
v -0.2 1.2 0.1
v -0.1 0 0.1
v -0.1 0.1 0.1
v -0.1 0.3 0.1
v -0.1 0.6 0.1
v -0.1 0.7 0.1
v -0.1 0.8 0.1
v -0.1 0.9 0.1
v 0 0.3 0.1
v 0 0.6 0.1
v 0.1 0 0.1
v 0.1 0.1 0.1
v 0.1 0.3 0.1
v 0.1 0.6 0.1
v 0.1 0.7 0.1
v 0.1 0.8 0.1
v 0.1 0.9 0.1
v 0.2 0 0.1
v 0.2 0.1 0.1
v 0.2 0.3 0.1
v 0.2 0.5 0.1
v 0.2 0.6 0.1
v 0.2 0.7 0.1
v 0.2 0.8 0.1
v 0.2 0.9 0.1
v 0.2 1 0.1
v 0.2 1.1 0.1
v 0.2 1.2 0.1
v 0.3 0.5 0.1
v 0.3 0.6 0.1
v 0.3 0.8 0.1
v 0.3 1.1 0.1
v 0.3 1.2 0.1
v -0.4 0.5 -2.98023e-08
v -0.4 0.6 -2.98023e-08
v -0.3 0.3 -2.98023e-08
v -0.3 0.5 -2.98023e-08
v -0.3 0.6 -2.98023e-08
v -0.2 0.1 -2.98023e-08
v -0.2 0.2 -2.98023e-08
v -0.2 0.3 -2.98023e-08
v -0.2 0.5 -2.98023e-08
v -0.2 1.2 -2.98023e-08
v -0.2 1.3 -2.98023e-08
v -0.1 0.1 -2.98023e-08
v -0.1 0.2 -2.98023e-08
v -0.1 0.3 -2.98023e-08
v -0.1 1.2 -2.98023e-08
v -0.1 1.3 -2.98023e-08
v 0.1 0.1 -2.98023e-08
v 0.1 0.2 -2.98023e-08
v 0.1 0.3 -2.98023e-08
v 0.1 1.2 -2.98023e-08
v 0.1 1.3 -2.98023e-08
v 0.2 0.1 -2.98023e-08
v 0.2 0.2 -2.98023e-08
v 0.2 0.3 -2.98023e-08
v 0.2 0.5 -2.98023e-08
v 0.2 1.2 -2.98023e-08
v 0.2 1.3 -2.98023e-08
v 0.3 0.3 -2.98023e-08
v 0.3 0.5 -2.98023e-08
v 0.3 0.6 -2.98023e-08
v 0.4 0.5 -2.98023e-08
v 0.4 0.6 -2.98023e-08
v 0.2 0.4 0.2
v 0.2 0.7 0.2
v 0.3 0.3 0.2
v 0.3 0.4 0.2
v 0.3 0.5 0.2
v 0.3 0.6 0.2
v 0.3 0.7 0.2
v 0.3 0.8 0.2
v 0.4 0.3 0.2
v 0.4 0.5 0.2
v 0.4 0.6 0.2
v 0.4 0.7 0.2
v 0.5 0.3 0.2
v 0.5 0.5 0.2
v 0.5 0.6 0.2
v 0.5 0.7 0.2
v 0.6 0.3 0.2
v 0.6 0.4 0.2
v 0.6 0.5 0.2
v 0.6 0.6 0.2
v 0.6 0.7 0.2
v 0.6 0.8 0.2
v 0.7 0.4 0.2
v 0.7 0.7 0.2
v -0.5 0.4 0.1
v -0.5 0.5 0.1
v -0.5 0.7 0.1
v -0.5 1.2 0.1
v -0.4 0.4 0.1
v -0.4 0.5 0.1
v -0.4 0.7 0.1
v -0.4 1.2 0.1
v -0.5 0.5 -2.98023e-08
v -0.5 0.6 -2.98023e-08
v -0.5 0.7 -2.98023e-08
v -0.4 0.5 -2.98023e-08
v -0.4 0.6 -2.98023e-08
v -0.4 0.7 -2.98023e-08
v 0.4 0.5 -2.98023e-08
v 0.4 0.6 -2.98023e-08
v 0.5 0.5 -2.98023e-08
v 0.5 0.6 -2.98023e-08
v -0.4 0.5 -0.1
v -0.4 0.6 -0.1
v -0.3 0.3 -0.1
v -0.3 0.5 -0.1
v -0.3 0.6 -0.1
v -0.2 0 -0.1
v -0.2 0.1 -0.1
v -0.2 0.2 -0.1
v -0.2 0.3 -0.1
v -0.2 0.6 -0.1
v -0.2 1.2 -0.1
v -0.2 1.3 -0.1
v -0.1 0 -0.1
v -0.1 0.1 -0.1
v -0.1 0.2 -0.1
v -0.1 0.3 -0.1
v -0.1 1.2 -0.1
v -0.1 1.3 -0.1
v 0.1 0 -0.1
v 0.1 0.1 -0.1
v 0.1 0.2 -0.1
v 0.1 0.3 -0.1
v 0.1 1.2 -0.1
v 0.1 1.3 -0.1
v 0.2 0 -0.1
v 0.2 0.1 -0.1
v 0.2 0.2 -0.1
v 0.2 0.3 -0.1
v 0.2 0.6 -0.1
v 0.2 1.2 -0.1
v 0.2 1.3 -0.1
v 0.3 0.3 -0.1
v 0.3 0.5 -0.1
v 0.3 0.6 -0.1
v 0.4 0.5 -0.1
v 0.4 0.6 -0.1
v -0.3 0.6 -0.2
v -0.3 0.7 -0.2
v -0.3 1.1 -0.2
v -0.3 1.2 -0.2
v -0.2 0.3 -0.2
v -0.2 0.6 -0.2
v -0.2 1.1 -0.2
v -0.2 1.2 -0.2
v -0.1 0.3 -0.2
v -0.1 0.6 -0.2
v -0.1 1.2 -0.2
v -0.1 1.3 -0.2
v 0 0.3 -0.2
v 0 0.6 -0.2
v 0.1 0.3 -0.2
v 0.1 0.6 -0.2
v 0.1 1.2 -0.2
v 0.1 1.3 -0.2
v 0.2 0.3 -0.2
v 0.2 0.6 -0.2
v 0.2 1.1 -0.2
v 0.2 1.2 -0.2
v 0.3 0.6 -0.2
v 0.3 0.7 -0.2
v 0.3 1.1 -0.2
v 0.3 1.2 -0.2
v -0.3 0.7 -0.3
v -0.3 0.8 -0.3
v -0.3 1.1 -0.3
v -0.2 0.8 -0.3
v -0.2 1.1 -0.3
v -0.2 1.2 -0.3
v 0.2 0.8 -0.3
v 0.2 1.1 -0.3
v 0.2 1.2 -0.3
v 0.3 0.7 -0.3
v 0.3 0.8 -0.3
v 0.3 1.1 -0.3
v -0.2 0.8 -0.4
v -0.2 1.1 -0.4
v 0.2 0.8 -0.4
v 0.2 1.1 -0.4
v -0.2 0 0.1
v -0.1 0 0.1
v 0.1 0 0.1
v 0.2 0 0.1
v -0.2 0 -0.1
v -0.1 0 -0.1
v 0.1 0 -0.1
v 0.2 0 -0.1
v 0.3 0.3 0.3
v 0.4 0.3 0.3
v 0.5 0.3 0.3
v 0.6 0.3 0.3
v 0.3 0.3 0.2
v 0.4 0.3 0.2
v 0.5 0.3 0.2
v 0.6 0.3 0.2
v -0.2 0.3 0.1
v -0.1 0.3 0.1
v 0 0.3 0.1
v 0.1 0.3 0.1
v 0.2 0.3 0.1
v -0.3 0.3 -2.98023e-08
v -0.2 0.3 -2.98023e-08
v -0.1 0.3 -2.98023e-08
v 0 0.3 -2.98023e-08
v 0.1 0.3 -2.98023e-08
v 0.2 0.3 -2.98023e-08
v 0.3 0.3 -2.98023e-08
v -0.3 0.3 -0.1
v -0.2 0.3 -0.1
v -0.1 0.3 -0.1
v 0 0.3 -0.1
v 0.1 0.3 -0.1
v 0.2 0.3 -0.1
v 0.3 0.3 -0.1
v -0.2 0.3 -0.2
v -0.1 0.3 -0.2
v 0 0.3 -0.2
v 0.1 0.3 -0.2
v 0.2 0.3 -0.2
v 0.2 0.4 0.3
v 0.3 0.4 0.3
v 0.6 0.4 0.3
v 0.7 0.4 0.3
v -0.5 0.4 0.2
v -0.4 0.4 0.2
v 0.2 0.4 0.2
v 0.3 0.4 0.2
v 0.6 0.4 0.2
v 0.7 0.4 0.2
v -0.5 0.4 0.1
v -0.4 0.4 0.1
v 0.4 0.5 0.2
v 0.5 0.5 0.2
v -0.5 0.5 0.1
v -0.4 0.5 0.1
v -0.3 0.5 0.1
v -0.2 0.5 0.1
v 0.2 0.5 0.1
v 0.3 0.5 0.1
v -0.5 0.5 -2.98023e-08
v -0.4 0.5 -2.98023e-08
v -0.3 0.5 -2.98023e-08
v -0.2 0.5 -2.98023e-08
v 0.2 0.5 -2.98023e-08
v 0.3 0.5 -2.98023e-08
v 0.4 0.5 -2.98023e-08
v 0.5 0.5 -2.98023e-08
v -0.4 0.5 -0.1
v -0.3 0.5 -0.1
v 0.3 0.5 -0.1
v 0.4 0.5 -0.1
v -0.5 0.6 0.3
v -0.4 0.6 0.3
v -0.5 0.6 0.2
v -0.4 0.6 0.2
v -0.3 0.6 -0.1
v -0.2 0.6 -0.1
v 0.2 0.6 -0.1
v 0.3 0.6 -0.1
v -0.3 0.6 -0.2
v -0.2 0.6 -0.2
v 0.2 0.6 -0.2
v 0.3 0.6 -0.2
v -0.3 0.7 -0.2
v 0.3 0.7 -0.2
v -0.3 0.7 -0.3
v 0.3 0.7 -0.3
v -0.3 0.8 0.2
v -0.2 0.8 0.2
v 0.2 0.8 0.2
v 0.3 0.8 0.2
v -0.3 0.8 0.1
v -0.2 0.8 0.1
v 0.2 0.8 0.1
v 0.3 0.8 0.1
v -0.2 0.8 -0.3
v 0.2 0.8 -0.3
v -0.2 0.8 -0.4
v 0.2 0.8 -0.4
v -0.2 1 0.2
v 0.2 1 0.2
v -0.2 1 0.1
v 0.2 1 0.1
v -0.2 0.1 0.1
v -0.1 0.1 0.1
v 0.1 0.1 0.1
v 0.2 0.1 0.1
v -0.2 0.1 -2.98023e-08
v -0.1 0.1 -2.98023e-08
v 0.1 0.1 -2.98023e-08
v 0.2 0.1 -2.98023e-08
v 0.4 0.6 0.2
v 0.5 0.6 0.2
v -0.4 0.6 -2.98023e-08
v -0.3 0.6 -2.98023e-08
v 0.3 0.6 -2.98023e-08
v 0.4 0.6 -2.98023e-08
v 0.5 0.6 -2.98023e-08
v -0.4 0.6 -0.1
v -0.3 0.6 -0.1
v 0.3 0.6 -0.1
v 0.4 0.6 -0.1
v -0.5 0.7 0.3
v -0.4 0.7 0.3
v 0.2 0.7 0.3
v 0.3 0.7 0.3
v 0.6 0.7 0.3
v 0.7 0.7 0.3
v -0.5 0.7 0.2
v -0.4 0.7 0.2
v 0.2 0.7 0.2
v 0.3 0.7 0.2
v 0.6 0.7 0.2
v 0.7 0.7 0.2
v -0.5 0.7 0.1
v -0.4 0.7 0.1
v -0.5 0.7 -2.98023e-08
v -0.4 0.7 -2.98023e-08
v 0.3 0.8 0.3
v 0.6 0.8 0.3
v 0.3 0.8 0.2
v 0.6 0.8 0.2
v -0.3 1.1 0.2
v -0.2 1.1 0.2
v 0.2 1.1 0.2
v 0.3 1.1 0.2
v -0.3 1.1 0.1
v -0.2 1.1 0.1
v 0.2 1.1 0.1
v 0.3 1.1 0.1
v -0.3 1.1 -0.2
v -0.2 1.1 -0.2
v 0.2 1.1 -0.2
v 0.3 1.1 -0.2
v -0.3 1.1 -0.3
v -0.2 1.1 -0.3
v 0.2 1.1 -0.3
v 0.3 1.1 -0.3
v -0.2 1.1 -0.4
v 0.2 1.1 -0.4
v -0.5 1.2 0.2
v -0.4 1.2 0.2
v -0.2 1.2 0.2
v -0.1 1.2 0.2
v 0.1 1.2 0.2
v 0.2 1.2 0.2
v -0.5 1.2 0.1
v -0.4 1.2 0.1
v -0.3 1.2 0.1
v -0.2 1.2 0.1
v 0.2 1.2 0.1
v 0.3 1.2 0.1
v -0.2 1.2 -2.98023e-08
v -0.1 1.2 -2.98023e-08
v 0.1 1.2 -2.98023e-08
v 0.2 1.2 -2.98023e-08
v -0.2 1.2 -0.1
v -0.1 1.2 -0.1
v 0.1 1.2 -0.1
v 0.2 1.2 -0.1
v -0.3 1.2 -0.2
v -0.2 1.2 -0.2
v -0.1 1.2 -0.2
v 0.1 1.2 -0.2
v 0.2 1.2 -0.2
v 0.3 1.2 -0.2
v -0.2 1.2 -0.3
v 0.2 1.2 -0.3
v -0.1 1.3 0.2
v 0.1 1.3 0.2
v -0.2 1.3 -2.98023e-08
v -0.1 1.3 -2.98023e-08
v 0.1 1.3 -2.98023e-08
v 0.2 1.3 -2.98023e-08
v -0.2 1.3 -0.1
v -0.1 1.3 -0.1
v 0.1 1.3 -0.1
v 0.2 1.3 -0.1
v -0.1 1.3 -0.2
v 0.1 1.3 -0.2

# faces
f 3/6/1 2/6/1 1/6/1
f 4/6/1 2/6/1 3/6/1
f 7/10/1 4/10/1 3/10/1
f 7/10/1 5/10/1 4/10/1
f 8/10/1 5/10/1 7/10/1
f 9/6/1 7/6/1 6/6/1
f 9/6/1 8/6/1 7/6/1
f 10/6/1 8/6/1 9/6/1
f 11/6/1 8/6/1 10/6/1
f 12/6/1 8/6/1 11/6/1
f 13/6/1 11/6/1 10/6/1
f 14/6/1 11/6/1 13/6/1
f 17/10/1 16/10/1 15/10/1
f 18/10/1 16/10/1 17/10/1
f 22/9/1 20/9/1 19/9/1
f 23/9/1 20/9/1 22/9/1
f 24/9/1 22/9/1 21/9/1
f 25/9/1 22/9/1 24/9/1
f 28/7/1 26/7/1 25/7/1
f 28/7/1 27/7/1 26/7/1
f 28/7/1 25/7/1 24/7/1
f 31/7/1 28/7/1 24/7/1
f 31/7/1 29/7/1 28/7/1
f 32/7/1 29/7/1 31/7/1
f 33/6/1 31/6/1 30/6/1
f 33/6/1 32/6/1 31/6/1
f 34/6/1 32/6/1 33/6/1
f 35/6/1 32/6/1 34/6/1
f 36/6/1 32/6/1 35/6/1
f 37/6/1 35/6/1 34/6/1
f 38/6/1 35/6/1 37/6/1
f 41/8/1 40/8/1 39/8/1
f 42/8/1 40/8/1 41/8/1
f 43/8/1 40/8/1 42/8/1
f 44/11/1 43/11/1 42/11/1
f 45/11/1 43/11/1 44/11/1
f 47/10/1 45/10/1 44/10/1
f 48/10/1 45/10/1 47/10/1
f 50/11/1 47/11/1 46/11/1
f 51/11/1 47/11/1 50/11/1
f 52/11/1 49/11/1 48/11/1
f 53/11/1 49/11/1 52/11/1
f 59/6/1 55/6/1 54/6/1
f 60/6/1 55/6/1 59/6/1
f 61/6/1 57/6/1 56/6/1
f 62/6/1 57/6/1 61/6/1
f 65/6/1 59/6/1 58/6/1
f 66/6/1 59/6/1 65/6/1
f 67/6/1 64/6/1 63/6/1
f 68/6/1 64/6/1 67/6/1
f 73/6/1 70/6/1 69/6/1
f 74/6/1 70/6/1 73/6/1
f 75/6/1 72/6/1 71/6/1
f 76/6/1 72/6/1 75/6/1
f 79/8/1 78/8/1 77/8/1
f 80/8/1 78/8/1 79/8/1
f 81/8/1 78/8/1 80/8/1
f 82/11/1 81/11/1 80/11/1
f 83/11/1 81/11/1 82/11/1
f 84/10/1 83/10/1 82/10/1
f 85/10/1 83/10/1 84/10/1
f 88/11/1 87/11/1 86/11/1
f 89/11/1 87/11/1 88/11/1
f 92/6/1 91/6/1 90/6/1
f 93/6/1 92/6/1 90/6/1
f 94/6/1 92/6/1 93/6/1
f 97/11/1 96/11/1 95/11/1
f 98/11/1 96/11/1 97/11/1
f 101/11/1 100/11/1 99/11/1
f 102/11/1 100/11/1 101/11/1
f 105/10/1 104/10/1 103/10/1
f 106/10/1 104/10/1 105/10/1
f 107/6/2 108/6/2 109/6/2
f 109/6/2 108/6/2 110/6/2
f 109/10/2 110/10/2 113/10/2
f 110/10/2 111/10/2 113/10/2
f 113/10/2 111/10/2 114/10/2
f 112/6/2 113/6/2 115/6/2
f 113/6/2 114/6/2 115/6/2
f 115/6/2 114/6/2 116/6/2
f 116/6/2 114/6/2 117/6/2
f 117/6/2 114/6/2 118/6/2
f 116/6/2 117/6/2 119/6/2
f 119/6/2 117/6/2 120/6/2
f 121/6/2 122/6/2 123/6/2
f 121/6/2 123/6/2 124/6/2
f 124/6/2 123/6/2 125/6/2
f 126/8/2 127/8/2 128/8/2
f 128/8/2 127/8/2 129/8/2
f 129/8/2 127/8/2 130/8/2
f 129/11/2 130/11/2 131/11/2
f 131/11/2 130/11/2 132/11/2
f 131/10/2 132/10/2 133/10/2
f 133/10/2 132/10/2 134/10/2
f 135/6/2 136/6/2 139/6/2
f 139/6/2 136/6/2 140/6/2
f 137/6/2 138/6/2 141/6/2
f 141/6/2 138/6/2 142/6/2
f 143/8/2 144/8/2 145/8/2
f 145/8/2 144/8/2 146/8/2
f 146/8/2 144/8/2 147/8/2
f 146/11/2 147/11/2 148/11/2
f 148/11/2 147/11/2 149/11/2
f 148/10/2 149/10/2 151/10/2
f 151/10/2 149/10/2 152/10/2
f 150/9/2 151/9/2 154/9/2
f 154/9/2 151/9/2 155/9/2
f 152/9/2 153/9/2 156/9/2
f 156/9/2 153/9/2 157/9/2
f 158/6/2 159/6/2 163/6/2
f 163/6/2 159/6/2 164/6/2
f 160/6/2 161/6/2 165/6/2
f 165/6/2 161/6/2 166/6/2
f 162/6/2 163/6/2 169/6/2
f 169/6/2 163/6/2 170/6/2
f 167/6/2 168/6/2 171/6/2
f 171/6/2 168/6/2 172/6/2
f 173/11/2 174/11/2 176/11/2
f 176/11/2 174/11/2 177/11/2
f 175/11/2 176/11/2 178/11/2
f 178/11/2 176/11/2 179/11/2
f 179/7/2 180/7/2 182/7/2
f 180/7/2 181/7/2 182/7/2
f 178/7/2 179/7/2 182/7/2
f 178/7/2 182/7/2 185/7/2
f 182/7/2 183/7/2 185/7/2
f 185/7/2 183/7/2 186/7/2
f 184/6/2 185/6/2 187/6/2
f 185/6/2 186/6/2 187/6/2
f 187/6/2 186/6/2 188/6/2
f 188/6/2 186/6/2 189/6/2
f 189/6/2 186/6/2 190/6/2
f 188/6/2 189/6/2 191/6/2
f 191/6/2 189/6/2 192/6/2
f 193/10/2 194/10/2 195/10/2
f 195/10/2 194/10/2 196/10/2
f 197/10/2 198/10/2 199/10/2
f 199/10/2 198/10/2 200/10/2
f 201/11/2 202/11/2 203/11/2
f 203/11/2 202/11/2 204/11/2
f 205/11/2 206/11/2 207/11/2
f 207/11/2 206/11/2 208/11/2
f 209/11/2 210/11/2 211/11/2
f 211/11/2 210/11/2 212/11/2
f 215/6/3 214/6/3 213/6/3
f 216/6/3 214/6/3 215/6/3
f 220/11/3 218/11/3 217/11/3
f 221/11/3 218/11/3 220/11/3
f 222/11/3 218/11/3 221/11/3
f 223/11/3 218/11/3 222/11/3
f 225/11/3 220/11/3 219/11/3
f 225/11/3 221/11/3 220/11/3
f 226/12/3 222/12/3 221/12/3
f 226/11/3 221/11/3 225/11/3
f 227/11/3 223/11/3 222/11/3
f 227/12/3 222/12/3 226/12/3
f 227/11/3 224/11/3 223/11/3
f 228/11/3 224/11/3 227/11/3
f 229/12/3 226/12/3 225/12/3
f 229/12/3 227/12/3 226/12/3
f 229/12/3 228/12/3 227/12/3
f 230/12/3 228/12/3 229/12/3
f 231/12/3 228/12/3 230/12/3
f 232/11/3 224/11/3 228/11/3
f 232/12/3 228/12/3 231/12/3
f 233/11/3 230/11/3 229/11/3
f 234/11/3 230/11/3 233/11/3
f 235/12/3 231/12/3 230/12/3
f 235/11/3 230/11/3 234/11/3
f 236/11/3 232/11/3 231/11/3
f 236/12/3 231/12/3 235/12/3
f 237/11/3 224/11/3 232/11/3
f 237/11/3 232/11/3 236/11/3
f 238/11/3 224/11/3 237/11/3
f 239/11/3 236/11/3 235/11/3
f 239/11/3 237/11/3 236/11/3
f 239/11/3 235/11/3 234/11/3
f 240/11/3 237/11/3 239/11/3
f 246/6/3 242/6/3 241/6/3
f 247/10/3 243/10/3 242/10/3
f 247/6/3 242/6/3 246/6/3
f 248/10/3 243/10/3 247/10/3
f 249/6/3 245/6/3 244/6/3
f 250/6/3 245/6/3 249/6/3
f 253/6/3 252/6/3 251/6/3
f 254/6/3 252/6/3 253/6/3
f 255/6/3 252/6/3 254/6/3
f 257/6/3 256/6/3 255/6/3
f 257/6/3 255/6/3 254/6/3
f 259/6/3 257/6/3 254/6/3
f 259/6/3 258/6/3 257/6/3
f 260/6/3 258/6/3 259/6/3
f 262/6/3 259/6/3 254/6/3
f 263/6/3 259/6/3 262/6/3
f 264/6/3 259/6/3 263/6/3
f 265/6/3 262/6/3 261/6/3
f 265/6/3 263/6/3 262/6/3
f 266/6/3 263/6/3 265/6/3
f 275/9/3 268/9/3 267/9/3
f 276/7/3 269/7/3 268/7/3
f 276/9/3 268/9/3 275/9/3
f 277/7/3 269/7/3 276/7/3
f 278/7/3 269/7/3 277/7/3
f 281/6/3 271/6/3 270/6/3
f 282/6/3 271/6/3 281/6/3
f 283/8/3 273/8/3 272/8/3
f 284/8/3 273/8/3 283/8/3
f 285/11/3 275/11/3 274/11/3
f 285/11/3 276/11/3 275/11/3
f 286/7/3 277/7/3 276/7/3
f 286/11/3 276/11/3 285/11/3
f 287/10/3 278/10/3 277/10/3
f 287/7/3 277/7/3 286/7/3
f 288/12/3 279/12/3 278/12/3
f 288/10/3 278/10/3 287/10/3
f 289/7/3 280/7/3 279/7/3
f 289/12/3 279/12/3 288/12/3
f 290/9/3 286/9/3 285/9/3
f 291/7/3 287/7/3 286/7/3
f 291/9/3 286/9/3 290/9/3
f 294/11/3 291/11/3 290/11/3
f 295/7/3 287/7/3 291/7/3
f 295/11/3 291/11/3 294/11/3
f 296/5/3 288/5/3 287/5/3
f 296/7/3 287/7/3 295/7/3
f 297/10/3 289/10/3 288/10/3
f 297/5/3 288/5/3 296/5/3
f 298/7/3 280/7/3 289/7/3
f 298/10/3 289/10/3 297/10/3
f 299/8/3 293/8/3 292/8/3
f 300/8/3 293/8/3 299/8/3
f 301/9/3 295/9/3 294/9/3
f 302/9/3 295/9/3 301/9/3
f 303/7/3 296/7/3 295/7/3
f 303/9/3 295/9/3 302/9/3
f 304/10/3 297/10/3 296/10/3
f 304/7/3 296/7/3 303/7/3
f 305/12/3 298/12/3 297/12/3
f 305/10/3 297/10/3 304/10/3
f 306/7/3 280/7/3 298/7/3
f 306/12/3 298/12/3 305/12/3
f 307/7/3 280/7/3 306/7/3
f 310/11/3 303/11/3 302/11/3
f 311/7/3 305/7/3 304/7/3
f 311/11/3 303/11/3 310/11/3
f 311/7/3 304/7/3 303/7/3
f 312/7/3 305/7/3 311/7/3
f 313/6/3 309/6/3 308/6/3
f 314/6/3 309/6/3 313/6/3
f 318/10/3 316/10/3 315/10/3
f 319/10/3 316/10/3 318/10/3
f 322/9/3 318/9/3 317/9/3
f 323/9/3 318/9/3 322/9/3
f 326/11/3 321/11/3 320/11/3
f 327/10/3 322/10/3 321/10/3
f 327/11/3 321/11/3 326/11/3
f 328/10/3 322/10/3 327/10/3
f 329/6/3 325/6/3 324/6/3
f 330/6/3 325/6/3 329/6/3
f 336/11/3 332/11/3 331/11/3
f 337/10/3 333/10/3 332/10/3
f 337/11/3 332/11/3 336/11/3
f 338/10/3 333/10/3 337/10/3
f 340/6/3 335/6/3 334/6/3
f 341/6/3 335/6/3 340/6/3
f 342/11/3 339/11/3 338/11/3
f 343/11/3 339/11/3 342/11/3
f 345/10/3 344/10/3 343/10/3
f 346/10/3 344/10/3 345/10/3
f 347/11/4 348/11/4 350/11/4
f 350/11/4 348/11/4 351/11/4
f 351/11/4 348/11/4 352/11/4
f 352/11/4 348/11/4 353/11/4
f 349/11/4 350/11/4 355/11/4
f 350/11/4 351/11/4 355/11/4
f 351/12/4 352/12/4 356/12/4
f 355/11/4 351/11/4 356/11/4
f 353/11/4 354/11/4 357/11/4
f 356/12/4 352/12/4 357/12/4
f 352/11/4 353/11/4 357/11/4
f 357/11/4 354/11/4 358/11/4
f 355/12/4 356/12/4 359/12/4
f 359/12/4 356/12/4 360/12/4
f 357/12/4 358/12/4 361/12/4
f 358/11/4 354/11/4 362/11/4
f 361/12/4 358/12/4 362/12/4
f 359/11/4 360/11/4 363/11/4
f 363/11/4 360/11/4 364/11/4
f 360/12/4 361/12/4 365/12/4
f 364/11/4 360/11/4 365/11/4
f 361/11/4 362/11/4 366/11/4
f 365/12/4 361/12/4 366/12/4
f 362/11/4 354/11/4 367/11/4
f 366/11/4 362/11/4 367/11/4
f 367/11/4 354/11/4 368/11/4
f 365/11/4 366/11/4 369/11/4
f 366/11/4 367/11/4 369/11/4
f 364/11/4 365/11/4 369/11/4
f 369/11/4 367/11/4 370/11/4
f 371/6/4 372/6/4 375/6/4
f 375/6/4 372/6/4 376/6/4
f 373/6/4 374/6/4 377/6/4
f 377/6/4 374/6/4 378/6/4
f 379/10/4 380/10/4 382/10/4
f 380/6/4 381/6/4 383/6/4
f 382/10/4 380/10/4 383/10/4
f 383/6/4 381/6/4 384/6/4
f 385/10/4 386/10/4 387/10/4
f 387/10/4 386/10/4 388/10/4
f 389/10/4 390/10/4 392/10/4
f 392/10/4 390/10/4 393/10/4
f 391/9/4 392/9/4 397/9/4
f 392/9/4 393/9/4 397/9/4
f 397/9/4 393/9/4 398/9/4
f 394/8/4 395/8/4 401/8/4
f 395/11/4 396/11/4 402/11/4
f 401/8/4 395/8/4 402/8/4
f 396/10/4 397/10/4 403/10/4
f 402/11/4 396/11/4 403/11/4
f 403/10/4 397/10/4 404/10/4
f 399/6/4 400/6/4 405/6/4
f 405/6/4 400/6/4 406/6/4
f 407/8/4 408/8/4 413/8/4
f 408/11/4 409/11/4 414/11/4
f 413/8/4 408/8/4 414/8/4
f 409/10/4 410/10/4 415/10/4
f 414/11/4 409/11/4 415/11/4
f 415/10/4 410/10/4 416/10/4
f 411/6/4 412/6/4 418/6/4
f 418/6/4 412/6/4 419/6/4
f 416/11/4 417/11/4 420/11/4
f 420/11/4 417/11/4 421/11/4
f 421/11/4 417/11/4 422/11/4
f 421/10/4 422/10/4 423/10/4
f 423/10/4 422/10/4 424/10/4
f 425/7/4 426/7/4 430/7/4
f 427/6/4 428/6/4 431/6/4
f 431/6/4 428/6/4 432/6/4
f 429/11/4 430/11/4 433/11/4
f 430/7/4 426/7/4 434/7/4
f 433/11/4 430/11/4 434/11/4
f 433/9/4 434/9/4 437/9/4
f 434/7/4 426/7/4 438/7/4
f 437/9/4 434/9/4 438/9/4
f 437/11/4 438/11/4 439/11/4
f 438/7/4 426/7/4 440/7/4
f 439/11/4 438/11/4 440/11/4
f 435/6/4 436/6/4 441/6/4
f 441/6/4 436/6/4 442/6/4
f 439/9/4 440/9/4 443/9/4
f 440/7/4 426/7/4 444/7/4
f 443/9/4 440/9/4 444/9/4
f 444/7/4 426/7/4 447/7/4
f 447/7/4 426/7/4 448/7/4
f 445/6/4 446/6/4 449/6/4
f 449/6/4 446/6/4 450/6/4
f 451/7/4 452/7/4 454/7/4
f 452/6/4 453/6/4 454/6/4
f 454/6/4 453/6/4 455/6/4
f 451/7/4 454/7/4 457/7/4
f 455/6/4 456/6/4 458/6/4
f 458/6/4 456/6/4 459/6/4
f 451/7/4 457/7/4 460/7/4
f 457/6/4 458/6/4 461/6/4
f 460/7/4 457/7/4 461/7/4
f 461/6/4 458/6/4 462/6/4
f 463/6/4 464/6/4 465/6/4
f 465/6/4 464/6/4 466/6/4
f 471/8/5 468/8/5 467/8/5
f 472/8/5 468/8/5 471/8/5
f 473/8/5 470/8/5 469/8/5
f 474/8/5 470/8/5 473/8/5
f 479/11/5 476/11/5 475/11/5
f 480/12/5 477/12/5 476/12/5
f 480/11/5 476/11/5 479/11/5
f 481/11/5 478/11/5 477/11/5
f 481/12/5 477/12/5 480/12/5
f 482/11/5 478/11/5 481/11/5
f 489/11/5 484/11/5 483/11/5
f 490/9/5 485/9/5 484/9/5
f 490/11/5 484/11/5 489/11/5
f 491/11/5 486/11/5 485/11/5
f 491/9/5 485/9/5 490/9/5
f 492/9/5 487/9/5 486/9/5
f 492/11/5 486/11/5 491/11/5
f 493/9/5 487/9/5 492/9/5
f 495/9/5 489/9/5 488/9/5
f 496/9/5 489/9/5 495/9/5
f 497/4/5 491/4/5 490/4/5
f 498/2/5 492/2/5 491/2/5
f 498/4/5 491/4/5 497/4/5
f 499/2/5 492/2/5 498/2/5
f 500/11/5 494/11/5 493/11/5
f 501/11/5 494/11/5 500/11/5
f 502/11/5 497/11/5 496/11/5
f 503/9/5 498/9/5 497/9/5
f 503/11/5 497/11/5 502/11/5
f 504/11/5 499/11/5 498/11/5
f 504/9/5 498/9/5 503/9/5
f 505/9/5 500/9/5 499/9/5
f 505/11/5 499/11/5 504/11/5
f 506/9/5 500/9/5 505/9/5
f 513/11/5 508/11/5 507/11/5
f 514/11/5 508/11/5 513/11/5
f 515/11/5 510/11/5 509/11/5
f 516/11/5 510/11/5 515/11/5
f 517/6/5 512/6/5 511/6/5
f 518/6/5 512/6/5 517/6/5
f 527/10/5 522/10/5 521/10/5
f 528/10/5 522/10/5 527/10/5
f 529/9/5 524/9/5 523/9/5
f 530/9/5 524/9/5 529/9/5
f 531/11/5 526/11/5 525/11/5
f 532/11/5 526/11/5 531/11/5
f 533/10/5 520/10/5 519/10/5
f 534/10/5 520/10/5 533/10/5
f 535/10/5 529/10/5 528/10/5
f 536/10/5 529/10/5 535/10/5
f 537/10/5 533/10/5 532/10/5
f 538/10/5 533/10/5 537/10/5
f 541/6/5 540/6/5 539/6/5
f 542/6/5 540/6/5 541/6/5
f 547/7/5 544/7/5 543/7/5
f 548/7/5 544/7/5 547/7/5
f 549/7/5 546/7/5 545/7/5
f 550/7/5 546/7/5 549/7/5
f 553/7/5 552/7/5 551/7/5
f 554/7/5 552/7/5 553/7/5
f 559/6/5 556/6/5 555/6/5
f 560/6/5 556/6/5 559/6/5
f 561/6/5 558/6/5 557/6/5
f 562/6/5 558/6/5 561/6/5
f 565/6/5 564/6/5 563/6/5
f 566/6/5 564/6/5 565/6/5
f 569/6/5 568/6/5 567/6/5
f 570/6/5 568/6/5 569/6/5
f 571/8/6 572/8/6 575/8/6
f 575/8/6 572/8/6 576/8/6
f 573/8/6 574/8/6 577/8/6
f 577/8/6 574/8/6 578/8/6
f 579/10/6 580/10/6 584/10/6
f 584/10/6 580/10/6 585/10/6
f 581/10/6 582/10/6 586/10/6
f 586/10/6 582/10/6 587/10/6
f 583/10/6 584/10/6 588/10/6
f 588/10/6 584/10/6 589/10/6
f 590/6/6 591/6/6 596/6/6
f 596/6/6 591/6/6 597/6/6
f 592/11/6 593/11/6 598/11/6
f 598/11/6 593/11/6 599/11/6
f 594/11/6 595/11/6 600/11/6
f 600/11/6 595/11/6 601/11/6
f 602/6/6 603/6/6 604/6/6
f 604/6/6 603/6/6 605/6/6
f 606/11/6 607/11/6 608/11/6
f 608/11/6 607/11/6 609/11/6
f 610/6/6 611/6/6 614/6/6
f 614/6/6 611/6/6 615/6/6
f 612/6/6 613/6/6 616/6/6
f 616/6/6 613/6/6 617/6/6
f 618/6/6 619/6/6 622/6/6
f 622/6/6 619/6/6 623/6/6
f 620/6/6 621/6/6 624/6/6
f 624/6/6 621/6/6 625/6/6
f 623/6/6 624/6/6 626/6/6
f 626/6/6 624/6/6 627/6/6
f 628/6/6 629/6/6 634/6/6
f 634/6/6 629/6/6 635/6/6
f 630/6/6 631/6/6 637/6/6
f 632/6/6 633/6/6 638/6/6
f 636/6/6 637/6/6 640/6/6
f 637/6/6 631/6/6 640/6/6
f 640/6/6 631/6/6 641/6/6
f 638/6/6 639/6/6 642/6/6
f 632/6/6 638/6/6 642/6/6
f 642/6/6 639/6/6 643/6/6
f 636/6/6 640/6/6 644/6/6
f 643/6/6 639/6/6 647/6/6
f 644/6/6 645/6/6 648/6/6
f 636/6/6 644/6/6 648/6/6
f 648/6/6 645/6/6 649/6/6
f 649/6/6 645/6/6 650/6/6
f 646/6/6 647/6/6 651/6/6
f 647/6/6 639/6/6 652/6/6
f 651/6/6 647/6/6 652/6/6
f 652/6/6 639/6/6 653/6/6
f 649/6/6 650/6/6 654/6/6
f 650/6/6 651/6/6 654/6/6
f 651/6/6 652/6/6 654/6/6
f 654/6/6 652/6/6 655/6/6
f 656/6/6 657/6/6 659/6/6
f 659/6/6 657/6/6 660/6/6
f 658/6/6 659/6/6 662/6/6
f 660/6/6 661/6/6 662/6/6
f 659/6/6 660/6/6 662/6/6
f 662/6/6 661/6/6 663/6/6
f 663/6/6 661/6/6 664/6/6
f 664/6/6 661/6/6 665/6/6
f 663/6/6 664/6/6 666/6/6
f 666/6/6 664/6/6 667/6/6
